<?xml version="1.0" standalone="no"?>
<!DOCTYPE svg PUBLIC "-//W3C//DTD SVG 20010904//EN"
 "http://www.w3.org/TR/2001/REC-SVG-20010904/DTD/svg10.dtd">
<svg version="1.0" xmlns="http://www.w3.org/2000/svg"
 width="512.000000pt" height="512.000000pt" viewBox="0 0 512.000000 512.000000"
 preserveAspectRatio="xMidYMid meet">
<metadata>
Created by potrace 1.16, written by Peter Selinger 2001-2019
</metadata>
<g transform="translate(0.000000,512.000000) scale(0.100000,-0.100000)"
fill="#000000" stroke="none">
<path d="M0 4665 l0 -455 225 0 225 0 0 -300 0 -300 150 0 150 0 0 -220 0
-220 -375 0 -375 0 0 -1360 0 -1360 597 0 598 0 682 -227 683 -228 683 228
682 227 598 0 597 0 0 1360 0 1360 -375 0 -375 0 0 220 0 220 150 0 150 0 0
300 0 300 225 0 225 0 0 455 0 455 -2560 0 -2560 0 0 -455z m4810 0 l0 -145
-2250 0 -2250 0 0 145 0 145 2250 0 2250 0 0 -145z m-3760 -600 l0 -145 -145
0 -145 0 0 145 0 145 145 0 145 0 0 -145z m2710 -155 l0 -300 150 0 150 0 0
-220 0 -220 -57 0 c-49 0 -168 37 -750 231 l-693 231 -693 -231 c-582 -194
-701 -231 -750 -231 l-57 0 0 220 0 220 150 0 150 0 0 300 0 300 1200 0 1200
0 0 -300z m600 155 l0 -145 -145 0 -145 0 0 145 0 145 145 0 145 0 0 -145z
m-1135 -985 l660 -220 462 0 463 0 0 -1050 0 -1050 -468 0 -467 0 -655 -218
-655 -219 -655 219 -655 218 -472 0 -473 0 0 1050 0 1050 463 0 462 0 655 219
c360 121 660 220 665 220 6 1 307 -98 670 -219z"/>
<path d="M600 1815 l0 -755 345 0 c321 0 350 1 406 20 122 41 211 121 267 238
29 61 35 87 40 163 8 154 -44 282 -152 375 -45 38 -47 43 -36 65 24 43 40 123
40 196 0 167 -94 324 -239 397 -97 50 -145 56 -418 56 l-253 0 0 -755z m520
423 c102 -53 106 -188 8 -248 -27 -16 -51 -20 -125 -20 l-93 0 0 145 0 145 83
0 c66 0 92 -5 127 -22z m150 -601 c102 -54 106 -187 8 -247 -29 -18 -51 -20
-200 -20 l-168 0 0 145 0 145 158 0 c146 0 162 -2 202 -23z"/>
<path d="M2427 2563 c-11 -18 -519 -1394 -516 -1397 16 -13 284 -104 290 -99
4 5 25 58 47 118 22 61 50 136 62 168 l21 57 229 0 229 0 21 -57 c12 -32 40
-107 62 -168 22 -60 43 -113 47 -118 7 -7 291 93 291 103 0 3 -116 318 -258
700 l-257 695 -132 3 c-72 1 -134 -1 -136 -5z m243 -835 c0 -5 -49 -8 -110 -8
-60 0 -110 2 -110 5 0 8 99 276 106 287 5 9 113 -262 114 -284z"/>
<path d="M3510 1815 l0 -755 155 0 155 0 0 301 0 300 27 -3 c24 -3 47 -36 203
-298 97 -162 179 -295 183 -295 15 0 257 150 257 160 0 5 -61 111 -134 234
l-134 225 50 23 c66 30 168 134 200 203 66 140 62 290 -10 424 -59 110 -186
203 -311 226 -29 5 -186 10 -347 10 l-294 0 0 -755z m603 431 c43 -18 85 -68
93 -113 9 -47 -24 -116 -68 -143 -29 -17 -51 -20 -175 -20 l-143 0 0 145 0
145 130 0 c88 0 141 -4 163 -14z"/>
</g>
</svg>
